<svg id="Layer_1" data-name="Layer 1" xmlns="http://www.w3.org/2000/svg" viewBox="0 0 406.54 506.01"><defs><style>.cls-1{fill:#d52a28;}</style></defs><path class="cls-1" d="M503.67,144.63A154.14,154.14,0,0,0,441,83.5q-40.43-21.68-93.55-21.68H171.07a51.57,51.57,0,0,0-51.56,51.56h0A51.57,51.57,0,0,0,171.07,165H350.15q19.53,0,34.18,8.78a58.72,58.72,0,0,1,22.66,25q8,16.22,8,37.31,0,20.72-8.2,36.72a60.16,60.16,0,0,1-22.85,24.8q-14.65,8.79-33.79,8.79H226.51l-99.83,181.1c-15.19,26.95-5.75,59.49,20.14,73.74h0a53.51,53.51,0,0,0,72.69-21.09l71.88-130.62h56q53.11,0,93.55-21.49a153.21,153.21,0,0,0,62.7-60.74Q525.93,288,525.93,236T503.67,144.63Z" transform="translate(-119.39 -61.82)"/></svg>